<mxfile host="app.diagrams.net" modified="2023-09-05T14:10:46.152Z" agent="Mozilla/5.0 (Windows NT 10.0; Win64; x64) AppleWebKit/537.36 (KHTML, like Gecko) Chrome/116.0.0.0 Safari/537.36 Edg/116.0.1938.69" etag="fafFdG8eto0aTtlitrvG" version="21.7.2" type="device">
  <diagram name="PÃ¡gina-1" id="5f-hS7k0HEVFO01NkNRI">
    <mxGraphModel dx="1149" dy="657" grid="1" gridSize="10" guides="1" tooltips="1" connect="1" arrows="1" fold="1" page="1" pageScale="1" pageWidth="827" pageHeight="1169" math="0" shadow="0">
      <root>
        <mxCell id="0" />
        <mxCell id="1" parent="0" />
        <mxCell id="BUyFRqFr3UPtt6Jy4Bg1-1" value="Actor" style="shape=umlActor;verticalLabelPosition=bottom;verticalAlign=top;html=1;outlineConnect=0;" vertex="1" parent="1">
          <mxGeometry x="165" y="140" width="30" height="60" as="geometry" />
        </mxCell>
        <mxCell id="BUyFRqFr3UPtt6Jy4Bg1-2" value="" style="endArrow=classic;html=1;rounded=0;entryX=0;entryY=0.5;entryDx=0;entryDy=0;" edge="1" parent="1" target="BUyFRqFr3UPtt6Jy4Bg1-6">
          <mxGeometry width="50" height="50" relative="1" as="geometry">
            <mxPoint x="195" y="170" as="sourcePoint" />
            <mxPoint x="265" y="150" as="targetPoint" />
          </mxGeometry>
        </mxCell>
        <mxCell id="BUyFRqFr3UPtt6Jy4Bg1-4" value="" style="endArrow=none;html=1;rounded=0;" edge="1" parent="1">
          <mxGeometry width="50" height="50" relative="1" as="geometry">
            <mxPoint x="40" y="405" as="sourcePoint" />
            <mxPoint x="720" y="405" as="targetPoint" />
          </mxGeometry>
        </mxCell>
        <mxCell id="BUyFRqFr3UPtt6Jy4Bg1-5" value="Login" style="text;html=1;align=center;verticalAlign=middle;resizable=0;points=[];autosize=1;strokeColor=none;fillColor=none;" vertex="1" parent="1">
          <mxGeometry x="716" y="390" width="50" height="30" as="geometry" />
        </mxCell>
        <mxCell id="BUyFRqFr3UPtt6Jy4Bg1-8" style="edgeStyle=orthogonalEdgeStyle;rounded=0;orthogonalLoop=1;jettySize=auto;html=1;exitX=0.5;exitY=0;exitDx=0;exitDy=0;entryX=0;entryY=0.5;entryDx=0;entryDy=0;" edge="1" parent="1" source="BUyFRqFr3UPtt6Jy4Bg1-6" target="BUyFRqFr3UPtt6Jy4Bg1-7">
          <mxGeometry relative="1" as="geometry" />
        </mxCell>
        <mxCell id="BUyFRqFr3UPtt6Jy4Bg1-23" value="F" style="edgeLabel;html=1;align=center;verticalAlign=middle;resizable=0;points=[];" vertex="1" connectable="0" parent="BUyFRqFr3UPtt6Jy4Bg1-8">
          <mxGeometry x="-0.2889" y="-1" relative="1" as="geometry">
            <mxPoint as="offset" />
          </mxGeometry>
        </mxCell>
        <mxCell id="BUyFRqFr3UPtt6Jy4Bg1-10" style="edgeStyle=orthogonalEdgeStyle;rounded=0;orthogonalLoop=1;jettySize=auto;html=1;exitX=1;exitY=0.5;exitDx=0;exitDy=0;entryX=0;entryY=0.5;entryDx=0;entryDy=0;" edge="1" parent="1" source="BUyFRqFr3UPtt6Jy4Bg1-18" target="BUyFRqFr3UPtt6Jy4Bg1-9">
          <mxGeometry relative="1" as="geometry" />
        </mxCell>
        <mxCell id="BUyFRqFr3UPtt6Jy4Bg1-21" value="F" style="edgeLabel;html=1;align=center;verticalAlign=middle;resizable=0;points=[];" vertex="1" connectable="0" parent="BUyFRqFr3UPtt6Jy4Bg1-10">
          <mxGeometry x="-0.0937" relative="1" as="geometry">
            <mxPoint as="offset" />
          </mxGeometry>
        </mxCell>
        <mxCell id="BUyFRqFr3UPtt6Jy4Bg1-6" value="Tem login" style="rhombus;whiteSpace=wrap;html=1;" vertex="1" parent="1">
          <mxGeometry x="280" y="130" width="80" height="80" as="geometry" />
        </mxCell>
        <mxCell id="BUyFRqFr3UPtt6Jy4Bg1-11" style="edgeStyle=orthogonalEdgeStyle;rounded=0;orthogonalLoop=1;jettySize=auto;html=1;exitX=1;exitY=0.5;exitDx=0;exitDy=0;entryX=0.5;entryY=0;entryDx=0;entryDy=0;" edge="1" parent="1" source="BUyFRqFr3UPtt6Jy4Bg1-7" target="BUyFRqFr3UPtt6Jy4Bg1-9">
          <mxGeometry relative="1" as="geometry" />
        </mxCell>
        <mxCell id="BUyFRqFr3UPtt6Jy4Bg1-14" style="edgeStyle=orthogonalEdgeStyle;rounded=0;orthogonalLoop=1;jettySize=auto;html=1;exitX=0.5;exitY=0;exitDx=0;exitDy=0;entryX=0.987;entryY=0.5;entryDx=0;entryDy=0;entryPerimeter=0;" edge="1" parent="1" source="BUyFRqFr3UPtt6Jy4Bg1-7" target="BUyFRqFr3UPtt6Jy4Bg1-12">
          <mxGeometry relative="1" as="geometry">
            <mxPoint x="400" y="10" as="targetPoint" />
          </mxGeometry>
        </mxCell>
        <mxCell id="BUyFRqFr3UPtt6Jy4Bg1-15" style="edgeStyle=orthogonalEdgeStyle;rounded=0;orthogonalLoop=1;jettySize=auto;html=1;exitX=0.5;exitY=0;exitDx=0;exitDy=0;entryX=0.017;entryY=0.5;entryDx=0;entryDy=0;entryPerimeter=0;" edge="1" parent="1" source="BUyFRqFr3UPtt6Jy4Bg1-7" target="BUyFRqFr3UPtt6Jy4Bg1-13">
          <mxGeometry relative="1" as="geometry">
            <mxPoint x="410" y="20" as="targetPoint" />
          </mxGeometry>
        </mxCell>
        <mxCell id="BUyFRqFr3UPtt6Jy4Bg1-7" value="Cadastro" style="rounded=0;whiteSpace=wrap;html=1;" vertex="1" parent="1">
          <mxGeometry x="360" y="60" width="90" height="40" as="geometry" />
        </mxCell>
        <mxCell id="BUyFRqFr3UPtt6Jy4Bg1-9" value="Login" style="rounded=0;whiteSpace=wrap;html=1;" vertex="1" parent="1">
          <mxGeometry x="626" y="210" width="90" height="40" as="geometry" />
        </mxCell>
        <mxCell id="BUyFRqFr3UPtt6Jy4Bg1-12" value="Email" style="text;html=1;align=center;verticalAlign=middle;resizable=0;points=[];autosize=1;strokeColor=none;fillColor=none;" vertex="1" parent="1">
          <mxGeometry x="325" y="8" width="50" height="30" as="geometry" />
        </mxCell>
        <mxCell id="BUyFRqFr3UPtt6Jy4Bg1-13" value="Criar&lt;br&gt;senha" style="text;html=1;align=center;verticalAlign=middle;resizable=0;points=[];autosize=1;strokeColor=none;fillColor=none;" vertex="1" parent="1">
          <mxGeometry x="430" y="3" width="60" height="40" as="geometry" />
        </mxCell>
        <mxCell id="BUyFRqFr3UPtt6Jy4Bg1-19" value="" style="edgeStyle=orthogonalEdgeStyle;rounded=0;orthogonalLoop=1;jettySize=auto;html=1;exitX=0.5;exitY=1;exitDx=0;exitDy=0;entryX=0;entryY=0.5;entryDx=0;entryDy=0;" edge="1" parent="1" source="BUyFRqFr3UPtt6Jy4Bg1-6" target="BUyFRqFr3UPtt6Jy4Bg1-18">
          <mxGeometry relative="1" as="geometry">
            <mxPoint x="320" y="210" as="sourcePoint" />
            <mxPoint x="626" y="230" as="targetPoint" />
          </mxGeometry>
        </mxCell>
        <mxCell id="BUyFRqFr3UPtt6Jy4Bg1-22" value="V" style="edgeLabel;html=1;align=center;verticalAlign=middle;resizable=0;points=[];" vertex="1" connectable="0" parent="BUyFRqFr3UPtt6Jy4Bg1-19">
          <mxGeometry x="0.0026" relative="1" as="geometry">
            <mxPoint as="offset" />
          </mxGeometry>
        </mxCell>
        <mxCell id="BUyFRqFr3UPtt6Jy4Bg1-25" style="edgeStyle=orthogonalEdgeStyle;rounded=0;orthogonalLoop=1;jettySize=auto;html=1;exitX=0.5;exitY=1;exitDx=0;exitDy=0;entryX=0.5;entryY=0;entryDx=0;entryDy=0;" edge="1" parent="1" source="BUyFRqFr3UPtt6Jy4Bg1-18" target="BUyFRqFr3UPtt6Jy4Bg1-24">
          <mxGeometry relative="1" as="geometry" />
        </mxCell>
        <mxCell id="BUyFRqFr3UPtt6Jy4Bg1-26" value="V" style="edgeLabel;html=1;align=center;verticalAlign=middle;resizable=0;points=[];" vertex="1" connectable="0" parent="BUyFRqFr3UPtt6Jy4Bg1-25">
          <mxGeometry x="-0.163" y="1" relative="1" as="geometry">
            <mxPoint as="offset" />
          </mxGeometry>
        </mxCell>
        <mxCell id="BUyFRqFr3UPtt6Jy4Bg1-18" value="Esqueceu a senha?" style="rhombus;whiteSpace=wrap;html=1;" vertex="1" parent="1">
          <mxGeometry x="430" y="195" width="100" height="70" as="geometry" />
        </mxCell>
        <mxCell id="BUyFRqFr3UPtt6Jy4Bg1-27" style="edgeStyle=orthogonalEdgeStyle;rounded=0;orthogonalLoop=1;jettySize=auto;html=1;exitX=1;exitY=0.5;exitDx=0;exitDy=0;entryX=0.5;entryY=1;entryDx=0;entryDy=0;" edge="1" parent="1" source="BUyFRqFr3UPtt6Jy4Bg1-24" target="BUyFRqFr3UPtt6Jy4Bg1-9">
          <mxGeometry relative="1" as="geometry" />
        </mxCell>
        <mxCell id="BUyFRqFr3UPtt6Jy4Bg1-24" value="Esqueci minha senha" style="rounded=0;whiteSpace=wrap;html=1;" vertex="1" parent="1">
          <mxGeometry x="435" y="310" width="90" height="40" as="geometry" />
        </mxCell>
      </root>
    </mxGraphModel>
  </diagram>
</mxfile>
